# xmcd
#
# Track frame offsets:
#	150
#	17185
#	31902
#	60137
#
# Disc length: 1028 seconds
#
# Revision: 1
# Processed by: cddbd v1.5.2PL0 Copyright (c) Steve Scherf et al.
# Submitted via: audiograbber 1.83.01
#
DISCID=23040204
DTITLE=Camilla - At The Weekend [CDM)
DYEAR=1999
DGENRE=Dance
TTITLE0=At The Weekend (Radio Version)
TTITLE1=At The Weekend (Zorro Radio Version)
TTITLE2=At The Weekend (Zorro Club Mix)
TTITLE3=At The Weekend (Instrumental)
EXTD=TR.
EXTT0=
EXTT1=
EXTT2=
EXTT3=
PLAYORDER=
